<?xml version="1.0" standalone="no"?>
<!DOCTYPE svg PUBLIC "-//W3C//DTD SVG 20010904//EN"
 "http://www.w3.org/TR/2001/REC-SVG-20010904/DTD/svg10.dtd">
<svg version="1.0" xmlns="http://www.w3.org/2000/svg"
 width="130.000000pt" height="189.000000pt" viewBox="0 0 130.000000 189.000000"
 preserveAspectRatio="xMidYMid meet">

<g transform="translate(0.000000,189.000000) scale(0.100000,-0.100000)"
fill="#000000" stroke="none">
<path d="M457 1787 c-39 -37 -60 -69 -73 -106 -15 -43 -33 -66 -93 -119 -145
-130 -243 -278 -256 -387 -15 -114 56 -255 199 -398 149 -148 259 -209 376
-209 121 0 229 61 381 218 146 152 191 234 193 355 1 68 -3 82 -36 150 -101
200 -350 409 -509 426 -30 3 -72 0 -93 -6 -22 -6 -42 -8 -45 -6 -4 5 12 85 24
118 13 31 -13 18 -68 -36z m256 -133 c136 -48 372 -289 417 -428 17 -54 8
-161 -18 -211 l-21 -40 -1 80 c-1 79 -37 227 -39 162 -2 -54 -23 -117 -48
-142 -36 -36 -92 -34 -134 3 -28 25 -32 35 -32 74 1 24 11 78 24 119 28 95 29
181 0 236 -25 51 -41 62 -41 31 0 -13 -9 -42 -20 -66 -15 -34 -29 -47 -67 -64
-42 -18 -53 -20 -93 -9 -83 21 -150 119 -150 220 0 25 5 31 33 40 70 22 116
21 190 -5z m-353 -148 c0 -24 7 -80 15 -123 26 -133 19 -170 -35 -198 -79 -41
-150 13 -150 114 0 23 -4 41 -9 41 -11 0 -47 -84 -60 -141 -6 -24 -11 -75 -12
-114 -1 -68 -1 -69 -14 -40 -21 45 -18 145 5 207 30 81 214 298 251 298 5 0 9
-20 9 -44z m275 -312 c18 -35 32 -88 42 -151 22 -147 30 -172 60 -184 37 -14
75 4 120 55 l35 41 -7 -50 c-13 -93 -56 -150 -155 -204 -61 -34 -48 -40 38
-17 29 7 52 10 52 6 0 -4 -28 -22 -62 -41 -57 -30 -71 -34 -143 -34 -66 0 -90
5 -135 26 -30 15 -64 34 -75 42 -18 15 -15 15 35 2 47 -12 52 -12 35 0 -77 54
-99 75 -130 120 -35 51 -65 144 -65 200 l0 30 19 -40 c59 -127 184 -137 245
-20 40 77 33 188 -21 342 -13 37 86 -71 112 -123z"/>
<path d="M233 612 c13 -14 17 -37 17 -88 0 -82 -13 -133 -47 -187 -24 -38 -25
-56 -3 -42 6 3 23 32 39 63 16 31 48 80 71 107 l42 50 -53 -55 c-28 -30 -49
-46 -45 -36 4 11 9 44 12 75 7 60 -14 131 -37 131 -8 0 -6 -6 4 -18z"/>
<path d="M92 565 c-47 -50 -53 -60 -50 -93 3 -33 6 -37 33 -39 20 -1 23 0 8 4
-46 9 -14 102 55 160 15 13 23 23 18 23 -6 0 -34 -25 -64 -55z"/>
<path d="M399 563 l-24 -28 28 24 c25 23 32 31 24 31 -2 0 -14 -12 -28 -27z"/>
<path d="M452 540 c-30 -33 -112 -197 -112 -226 0 -24 14 -32 24 -15 4 5 0 11
-6 14 -17 5 7 57 74 160 50 76 60 109 20 67z"/>
<path d="M763 543 c-22 -22 -101 -172 -113 -214 -9 -31 4 -49 23 -30 8 8 8 11
-2 11 -24 0 -2 51 61 148 58 88 72 126 31 85z"/>
<path d="M509 507 c-36 -56 -80 -145 -90 -179 -8 -30 6 -47 24 -29 8 8 8 11
-2 11 -22 0 -4 48 43 120 82 126 79 120 65 120 -8 0 -26 -19 -40 -43z"/>
<path d="M350 455 c-8 -9 -8 -15 -2 -15 12 0 26 19 19 26 -2 2 -10 -2 -17 -11z"/>
<path d="M596 427 c2 -7 -12 -30 -32 -52 -34 -37 -37 -38 -44 -20 -7 19 -7 19
-14 -3 -11 -34 0 -39 34 -13 30 21 30 21 30 1 0 -12 7 -20 17 -20 12 0 14 3 6
11 -12 12 -2 61 16 83 11 13 5 26 -10 26 -5 0 -6 -6 -3 -13z"/>
<path d="M1145 430 c7 -12 -64 -92 -76 -85 -4 3 -6 13 -3 23 5 14 4 15 -5 2
-12 -17 -15 -50 -4 -50 4 0 20 12 35 27 l28 27 0 -27 c0 -15 4 -27 9 -27 5 0
7 8 4 19 -3 10 2 32 11 49 19 36 20 52 5 52 -5 0 -8 -4 -4 -10z"/>
<path d="M772 418 c-15 -19 -42 -76 -42 -88 0 -19 26 -10 51 18 13 15 17 21 9
15 -8 -7 -18 -13 -22 -13 -13 0 -9 34 8 58 16 23 14 31 -4 10z"/>
<path d="M833 414 c-14 -28 -16 -94 -4 -94 6 0 8 6 5 14 -3 8 2 29 11 46 11
21 13 36 7 42 -7 7 -13 4 -19 -8z"/>
<path d="M1089 413 c-13 -16 -12 -17 4 -4 16 13 21 21 13 21 -2 0 -10 -8 -17
-17z"/>
<path d="M310 380 c-21 -41 -25 -60 -12 -60 6 0 42 100 35 100 -1 0 -12 -18
-23 -40z"/>
<path d="M895 370 c-14 -27 -22 -50 -18 -50 15 0 41 33 37 45 -3 7 -1 23 6 34
6 12 8 21 6 21 -3 0 -17 -22 -31 -50z"/>
<path d="M965 400 c-3 -5 -1 -10 4 -10 6 0 11 -13 11 -30 0 -33 15 -38 46 -15
18 14 18 14 -3 8 -20 -5 -23 -1 -23 26 0 31 -21 43 -35 21z"/>
<path d="M30 270 c0 -7 214 -10 621 -10 411 0 618 3 614 10 -9 14 -1235 14
-1235 0z"/>
<path d="M303 203 c24 -4 28 -8 24 -25 -4 -15 -3 -18 5 -10 18 18 1 42 -29 41
l-28 -2 28 -4z"/>
<path d="M405 181 c-4 -7 0 -8 10 -4 10 3 21 0 27 -8 8 -12 9 -11 5 1 -5 18
-33 25 -42 11z"/>
<path d="M479 188 c-1 -2 -3 -16 -5 -33 -2 -20 0 -25 5 -16 5 8 7 20 4 28 -3
8 2 13 12 13 11 0 15 -5 11 -16 -3 -8 -2 -12 4 -9 18 11 11 35 -10 35 -11 0
-21 -1 -21 -2z"/>
<path d="M586 181 c-3 -5 2 -7 13 -4 15 4 21 -1 24 -21 4 -26 4 -26 3 1 -1 28
-28 44 -40 24z"/>
<path d="M676 183 c7 -4 14 -19 17 -33 4 -22 5 -21 4 4 -1 17 -9 31 -17 33
-10 3 -11 2 -4 -4z"/>
<path d="M716 183 c7 -4 14 -19 17 -33 4 -22 5 -21 4 4 -1 17 -9 31 -17 33
-10 3 -11 2 -4 -4z"/>
<path d="M780 186 c0 -2 7 -7 16 -10 8 -3 12 -2 9 4 -6 10 -25 14 -25 6z"/>
<path d="M542 155 c0 -16 2 -22 5 -12 2 9 2 23 0 30 -3 6 -5 -1 -5 -18z"/>
<path d="M652 155 c0 -16 2 -22 5 -12 2 9 2 23 0 30 -3 6 -5 -1 -5 -18z"/>
<path d="M860 154 c0 -8 5 -12 10 -9 6 4 8 11 5 16 -9 14 -15 11 -15 -7z"/>
<path d="M584 149 c-3 -6 -2 -15 3 -20 5 -5 9 -1 9 11 0 23 -2 24 -12 9z"/>
<path d="M407 129 c7 -7 15 -10 18 -7 3 3 -2 9 -12 12 -14 6 -15 5 -6 -5z"/>
<path d="M483 103 c9 -2 23 -2 30 0 6 3 -1 5 -18 5 -16 0 -22 -2 -12 -5z"/>
</g>
</svg>
